# xmcd
#
# Track frame offsets: 
#        150
#        13920
#        32442
#        44385
#        63447
#        84267
#        106285
#        125227
#        138695
#        153190
#        166785
#        183635
#
# Disc length: 2632 seconds
#
# Revision: 2
# Processed by: cddbd v1.5.2PL0 Copyright (c) Steve Scherf et al.
# Submitted via: ExactAudioCopy v0.99pb5
#
DISCID=9c0a460c
DTITLE=Fjellis - See you in hell blind boy
DYEAR=1991
DGENRE=Blues
TTITLE0=Stones in my passway
TTITLE1=Walking blues
TTITLE2=Crossroad blues
TTITLE3=Steady rolling man
TTITLE4=Parchman farm
TTITLE5=Love in vain
TTITLE6=Come on in my kitchen
TTITLE7=When you got a good friend
TTITLE8=Lousiana blues
TTITLE9=Stop breaking down
TTITLE10=Kindhearted woman
TTITLE11=Hellhound on my trail
EXTD=
EXTT0=
EXTT1=
EXTT2=
EXTT3=
EXTT4=
EXTT5=
EXTT6=
EXTT7=
EXTT8=
EXTT9=
EXTT10=
EXTT11=
PLAYORDER=
